<?xml version="1.0" encoding="UTF-8"?>
<svg id="Camada_1" data-name="Camada 1" xmlns="http://www.w3.org/2000/svg" viewBox="0 0 795 186.88">
  <defs>
    <style>
      .cls-1, .cls-2 {
        fill: #e3164d;
      }

      .cls-3 {
        fill: #6fbd84;
      }

      .cls-2 {
        fill-rule: evenodd;
      }

      .cls-4 {
        fill: #fefefe;
      }
    </style>
  </defs>
  <path class="cls-2" d="m441.79,93.44h0c0,15.18-12.42,27.6-27.6,27.6h-38.24v38.24c0,15.18-12.42,27.6-27.6,27.6h0c-15.18,0-27.6-12.42-27.6-27.6v-38.24h-38.24c-15.18,0-27.6-12.42-27.6-27.6h0c0-15.18,12.42-27.6,27.6-27.6h38.24V27.6c0-15.18,12.42-27.6,27.6-27.6h0c15.18,0,27.6,12.42,27.6,27.6v38.24h38.24c15.18,0,27.6,12.42,27.6,27.6Z"/>
  <path class="cls-4" d="m348.34,80.34c1.85-3.17,3.81-5.68,6.16-7.56,3.24-2.59,7.08-3.89,12.15-3.89,5.62,0,10.71,2.28,14.39,5.96,3.68,3.68,5.96,8.77,5.96,14.39,0,13.57-8.98,20.69-20.77,30.04-5.11,4.05-10.78,8.55-16.43,14.2l-1.45,1.45-1.45-1.45c-5.65-5.65-11.32-10.15-16.43-14.2-11.79-9.35-20.77-16.47-20.77-30.03,0-5.62,2.28-10.71,5.96-14.39,3.68-3.68,8.77-5.96,14.39-5.96,5.07,0,8.91,1.3,12.14,3.89,2.34,1.88,4.31,4.39,6.16,7.56Zm8.71-4.36c-2.58,2.07-4.71,5.28-6.87,9.62l-1.84,3.68-1.84-3.68c-2.16-4.33-4.29-7.55-6.87-9.62-2.47-1.98-5.5-2.97-9.59-2.97-4.48,0-8.54,1.82-11.48,4.76-2.94,2.94-4.76,7-4.76,11.49,0,11.59,8.31,18.18,19.21,26.82,4.78,3.79,10.03,7.95,15.33,13.08,5.3-5.13,10.56-9.29,15.33-13.08,10.9-8.65,19.21-15.24,19.21-26.82,0-4.48-1.82-8.55-4.76-11.49s-7-4.76-11.48-4.76c-4.09,0-7.12.99-9.59,2.97Z"/>
  <path class="cls-3" d="m105.53,50.45h-10.79l-.13-1.45c0-2.02.22-4.01.66-5.99.44-1.97,1.19-3.84,2.24-5.59,1.23-2.02,2.87-3.75,4.93-5.2,2.06-1.45,4.32-2.17,6.77-2.17,1.31,0,2.74.15,4.27.46,1.54.31,3.05.68,4.54,1.12.44.09.86.2,1.25.33.4.13.81.24,1.25.33,1.93.53,3.77,1.03,5.52,1.51,1.76.48,3.29.72,4.6.72,1.58,0,2.7-.39,3.35-1.19.66-.79,1.25-1.84,1.78-3.16,0-.09.02-.15.07-.2.04-.04.07-.11.07-.2l11.18-.13c-.09.79-.18,1.51-.26,2.15-.09.66-.18,1.34-.27,2.04-.87,4.1-2.65,7.89-5.32,11.38-2.67,3.49-6.42,5.22-11.25,5.22-.96,0-1.97-.08-3.02-.26-1.05-.18-2.06-.44-3.03-.79-.7-.18-1.4-.39-2.1-.66-.7-.26-1.36-.53-1.97-.79-1.75-.53-3.44-1.05-5.07-1.58-1.62-.53-3.22-.79-4.8-.79-1.4,0-2.37.42-2.89,1.25-.53.83-.96,1.82-1.32,2.96-.09.09-.15.2-.2.33-.04.13-.06.24-.06.33Zm13.55,32.1c-4.82.09-8.59,1.64-11.31,4.67-2.72,3.02-4.08,6.6-4.08,10.72s1.36,7.89,4.08,10.79c2.72,2.89,6.49,4.34,11.31,4.34s8.7-1.45,11.38-4.37c2.67-2.89,4.01-6.51,4.01-10.83s-1.34-7.74-4.01-10.77c-2.67-3.05-6.47-4.56-11.38-4.56Zm38.54-18.55v67.48h-23.94v-7.5h-.26c-1.93,3.16-4.56,5.5-7.89,7.04-3.33,1.53-6.8,2.39-10.39,2.56-.35.09-.7.13-1.05.13h-1.05c-10,0-18.18-3.57-24.53-10.72-6.36-7.15-9.54-15.55-9.54-25.19s3.13-18.04,9.4-25.19c6.27-7.15,14.4-10.72,24.4-10.72h1.31c.44,0,.88.04,1.32.13,3.42.26,6.77,1.12,10.06,2.56,3.29,1.45,6.03,3.49,8.22,6.12v-6.71h23.94Zm46.4,18.55c-4.82.09-8.59,1.64-11.31,4.67-2.72,3.02-4.08,6.6-4.08,10.72s1.36,7.89,4.08,10.79,6.49,4.34,11.31,4.34,8.7-1.45,11.38-4.37c2.68-2.89,4.01-6.51,4.01-10.83s-1.34-7.74-4.01-10.77c-2.67-3.05-6.47-4.56-11.38-4.56Zm0-20.78c10.88.09,20.37,3.27,28.48,9.54,8.11,6.27,12.17,15.15,12.17,26.64s-4.05,20.21-12.17,26.44c-8.11,6.23-17.6,9.34-28.48,9.34s-20.26-3.09-28.41-9.27c-8.15-6.18-12.23-15.02-12.23-26.51s4.05-20.37,12.17-26.64c8.11-6.27,17.6-9.4,28.48-9.4v-.13Zm-134.83-23.94l-10.26,19.99c-2.37-1.93-5.02-3.48-7.96-4.67-2.94-1.18-5.98-1.77-9.14-1.77-.44,0-.92.02-1.45.07-.53.04-1.05.15-1.58.33-2.02.44-3.86,1.31-5.53,2.63-1.67,1.31-2.5,3.07-2.5,5.26s.79,3.79,2.37,5.06c1.58,1.27,3.29,2.3,5.13,3.09.7.27,1.38.5,2.04.73.66.22,1.3.42,1.91.59l6.58,1.84c6.93,2.1,12.74,5.15,17.43,9.14s7.04,10.02,7.04,18.09v2.1c-.18,4.56-1.01,9.01-2.5,13.35-1.49,4.34-4.08,8.09-7.76,11.25-3.33,2.89-7.1,5.04-11.31,6.44-4.21,1.4-8.51,2.28-12.89,2.63-.7,0-1.38.02-2.04.06-.66.04-1.29.07-1.91.07-6.23,0-12.32-.99-18.28-2.96-5.96-1.97-11.49-4.71-16.58-8.22l11.05-20.91c3.24,2.89,6.77,5.35,10.59,7.37,3.82,2.02,7.91,3.02,12.3,3.02h1.05c2.9-.18,5.53-1.07,7.89-2.7,2.37-1.62,3.55-4.05,3.55-7.3,0-2.46-.99-4.43-2.96-5.92-1.97-1.49-4.19-2.67-6.64-3.55-1.05-.35-2.1-.68-3.16-.99-1.05-.31-2.02-.59-2.89-.86-.18-.09-.37-.15-.59-.2-.22-.04-.42-.11-.59-.2-7.8-2.19-14.03-5-18.68-8.42-4.65-3.42-6.97-9.82-6.97-19.21,0-10.08,3.22-18.15,9.67-24.2,6.45-6.05,14.62-9.08,24.53-9.08,2.02,0,4.08.11,6.18.33s4.21.59,6.31,1.12c3.33.7,6.6,1.62,9.8,2.76,3.2,1.14,6.12,2.46,8.75,3.95v-.13Zm408.51-5.53v77.34h30.91v21.84h-56.69V32.3h25.78Zm37.26,31.7h23.94v36.04c0,4.38.77,7.94,2.3,10.66,1.53,2.71,4.76,4.08,9.67,4.08s8.13-1.36,9.67-4.08c1.54-2.72,2.3-6.23,2.3-10.52v-36.17h23.94v40.65c0,11.22-3.44,18.88-10.33,22.95-6.88,4.08-15.41,6.12-25.58,6.12s-18.59-2.04-25.52-6.12c-6.93-4.08-10.39-11.68-10.39-22.82v-40.78Zm131.17,1.71v20.26c-1.75-1.23-3.68-2.3-5.79-3.22-2.1-.92-4.29-1.38-6.58-1.38-4.56,0-8.44,1.58-11.64,4.74-3.2,3.16-4.8,7.06-4.8,11.7s1.58,8.79,4.73,11.91,7.19,4.67,12.1,4.67c.44,0,.9-.02,1.38-.07s.94-.11,1.38-.2c1.67-.26,3.31-.77,4.93-1.51s3.05-1.69,4.28-2.83v20.13c-2.63,1.31-5.37,2.28-8.22,2.89s-5.72.92-8.62.92c-10,0-18.61-3.31-25.85-9.93-7.23-6.62-10.85-15.02-10.85-25.19,0-10.87,3.64-19.71,10.92-26.51,7.28-6.8,16.22-10.19,26.83-10.19,2.8,0,5.55.33,8.22.99,2.68.66,5.2,1.64,7.56,2.96v-.13Zm45.54,16.84c-4.82.09-8.59,1.64-11.31,4.67-2.72,3.02-4.08,6.6-4.08,10.72s1.36,7.89,4.08,10.79c2.72,2.89,6.49,4.34,11.31,4.34s8.7-1.45,11.38-4.37c2.68-2.89,4.01-6.51,4.01-10.83s-1.34-7.74-4.01-10.77c-2.67-3.05-6.46-4.56-11.38-4.56Zm38.54-18.55v67.48h-23.94v-7.5h-.26c-1.93,3.16-4.56,5.5-7.89,7.04-3.33,1.53-6.8,2.39-10.39,2.56-.35.09-.7.13-1.05.13h-1.05c-10,0-18.18-3.57-24.53-10.72-6.36-7.15-9.54-15.55-9.54-25.19s3.14-18.04,9.41-25.19c6.27-7.15,14.4-10.72,24.4-10.72h1.31c.44,0,.88.04,1.31.13,3.42.26,6.77,1.12,10.06,2.56s6.03,3.49,8.22,6.12v-6.71h23.94Zm62.82,2.11l-8.03,15.26c-1.05-.53-2.21-1.01-3.49-1.45-1.27-.44-2.56-.79-3.88-1.05-.97-.18-1.91-.33-2.83-.46s-1.82-.2-2.7-.2c-.44,0-.9.02-1.38.06-.48.04-.94.15-1.38.33-1.23.26-2.32.72-3.29,1.38-.96.66-1.45,1.6-1.45,2.83,0,1.49.64,2.61,1.91,3.35,1.27.75,2.7,1.29,4.28,1.65.88.26,1.71.46,2.5.59.79.13,1.49.24,2.1.33,5.61,1.14,10.28,3.2,14.01,6.18,3.73,2.98,5.59,7.59,5.59,13.81,0,8.59-3.16,14.84-9.47,18.74-6.31,3.9-13.29,5.98-20.92,6.25h-1.45c-4.82,0-9.54-.66-14.14-1.97-4.6-1.31-8.97-3.2-13.09-5.66l8.68-16.84c1.49,1.14,3.2,2.17,5.13,3.09s3.9,1.73,5.92,2.43c1.41.44,2.76.79,4.08,1.05,1.31.26,2.59.39,3.81.39.35,0,.72-.02,1.12-.07.39-.04.81-.11,1.25-.2,1.31-.26,2.5-.79,3.55-1.58,1.05-.79,1.58-1.88,1.58-3.29,0-1.93-.92-3.31-2.76-4.14-1.84-.83-4.03-1.51-6.58-2.04-.96-.18-1.91-.37-2.83-.59-.92-.22-1.87-.46-2.83-.72-3.77-.97-7.21-2.65-10.33-5.07-3.11-2.41-4.67-6.64-4.67-12.69,0-8.15,3.03-14.16,9.08-18.02,6.05-3.86,12.67-5.83,19.86-5.92h.79c3.86,0,7.65.33,11.38.99,3.73.66,7.34,1.77,10.85,3.35v-.13Z"/>
  <path class="cls-1" d="m453.12,185.09v-30.88h5.01v11.4h15.2v-11.4h5.01v30.88h-5.01v-14.99h-15.2v14.99h-5.01Zm56.99-15.37c0-1.56-.29-3.05-.86-4.45-.57-1.4-1.39-2.66-2.45-3.75-1.04-1.09-2.24-1.91-3.61-2.5-1.37-.58-2.82-.88-4.33-.88s-2.96.29-4.34.86c-1.37.58-2.59,1.41-3.66,2.51-1.06,1.08-1.88,2.33-2.45,3.73-.56,1.4-.84,2.89-.84,4.47s.28,3.04.84,4.43c.56,1.39,1.38,2.63,2.45,3.73,1.07,1.1,2.28,1.94,3.65,2.51,1.36.58,2.81.86,4.35.86s2.93-.29,4.29-.86c1.35-.58,2.58-1.41,3.66-2.51,1.07-1.1,1.89-2.34,2.45-3.74.57-1.4.86-2.87.86-4.42Zm5.22,0c0,2.19-.41,4.27-1.23,6.22-.83,1.96-2.02,3.7-3.6,5.23-1.58,1.53-3.38,2.71-5.38,3.52-1.99.81-4.09,1.22-6.28,1.22s-4.34-.41-6.36-1.23c-2.02-.83-3.79-1.99-5.34-3.51-1.57-1.53-2.77-3.27-3.58-5.21-.81-1.93-1.22-4.02-1.22-6.24s.41-4.29,1.22-6.24c.81-1.96,2.01-3.71,3.58-5.25,1.58-1.53,3.36-2.7,5.36-3.5,1.99-.8,4.11-1.2,6.35-1.2s4.32.4,6.31,1.2c1.99.8,3.77,1.96,5.34,3.5,1.57,1.56,2.77,3.32,3.6,5.28.82,1.97,1.23,4.03,1.23,6.21Zm2.24,9.19l4-1.85c.38,1.37,1.08,2.43,2.09,3.15,1.01.73,2.3,1.09,3.88,1.09s2.68-.42,3.56-1.25c.88-.83,1.32-1.93,1.32-3.32,0-1.82-1.5-3.43-4.52-4.85-.43-.21-.75-.37-.97-.46-3.41-1.66-5.67-3.16-6.8-4.51-1.13-1.35-1.7-2.99-1.7-4.92,0-2.52.86-4.55,2.56-6.12,1.71-1.56,3.95-2.34,6.72-2.34,2.27,0,4.18.44,5.71,1.32,1.53.88,2.59,2.14,3.18,3.78l-3.92,2.03c-.62-.97-1.3-1.68-2.04-2.13-.74-.45-1.59-.68-2.55-.68-1.35,0-2.43.35-3.22,1.06-.8.7-1.19,1.64-1.19,2.82,0,1.86,1.75,3.59,5.24,5.19.27.13.47.23.63.29,3.05,1.41,5.15,2.79,6.28,4.12,1.14,1.35,1.7,3.02,1.7,5.03,0,2.92-.92,5.25-2.76,6.97-1.84,1.72-4.33,2.58-7.47,2.58-2.63,0-4.78-.6-6.46-1.81-1.68-1.21-2.78-2.94-3.3-5.19Zm28.74-11.78h1.29c2.79,0,4.64-.3,5.57-.91.93-.6,1.39-1.67,1.39-3.2,0-1.64-.5-2.8-1.49-3.48-.99-.67-2.81-1.01-5.47-1.01h-1.29v8.59Zm-.3,4.1v13.86h-4.71v-30.88h7.59c2.25,0,3.91.12,4.97.37,1.06.25,1.99.66,2.78,1.22.97.71,1.73,1.68,2.28,2.89.55,1.22.82,2.55.82,4.02s-.27,2.81-.82,4.05c-.55,1.24-1.31,2.21-2.28,2.91-.79.56-1.72.96-2.78,1.2-1.06.24-2.72.36-4.97.36h-2.88Zm16.62,13.86v-30.88h5.01v30.88h-5.01Zm20.46-26.6v26.6h-5.01v-26.6h-8.2v-4.28h21.38v4.28h-8.16Zm13.63,14.47h8.61l-3.17-7.04c-.18-.45-.37-.96-.57-1.55s-.4-1.23-.59-1.95c-.17.68-.34,1.31-.54,1.89-.19.58-.38,1.12-.58,1.61l-3.17,7.04Zm13.88,12.14l-3.5-7.95h-12.24l-3.58,7.95h-5.27l14.95-32.09,14.94,32.09h-5.3Zm6.46,0v-30.88h5.01v26.39h11.23v4.49h-16.24Zm56.37-23.36c-1.42-1.21-2.92-2.12-4.5-2.72-1.58-.61-3.25-.91-4.99-.91-3.37,0-6.11,1.08-8.23,3.25-2.12,2.17-3.17,4.97-3.17,8.42s1.03,6.07,3.09,8.24c2.06,2.17,4.66,3.25,7.79,3.25,1.83,0,3.56-.32,5.22-.97,1.65-.65,3.23-1.62,4.75-2.93v5.67c-1.35.97-2.81,1.7-4.4,2.17-1.59.48-3.31.72-5.16.72-2.36,0-4.54-.39-6.54-1.16-2.01-.78-3.76-1.92-5.28-3.42-1.5-1.48-2.66-3.22-3.47-5.22-.8-2-1.21-4.14-1.21-6.4s.4-4.39,1.21-6.38c.81-1.99,1.98-3.73,3.51-5.24,1.53-1.52,3.29-2.67,5.27-3.45,1.98-.78,4.12-1.17,6.43-1.17,1.82,0,3.54.26,5.18.79,1.65.53,3.24,1.33,4.78,2.4l-.27,5.05Zm4.49,23.36v-30.88h17.23v4.28h-12.22v7.73h12.22v4.4h-12.22v9.97h12.22v4.49h-17.23Zm21.24,0v-32.09l19.62,18.86c.53.53,1.07,1.1,1.63,1.71.55.6,1.12,1.29,1.73,2.04v-21.41h4.62v32.09l-20-19.22c-.53-.53-1.05-1.07-1.55-1.65-.5-.58-.97-1.18-1.43-1.81v21.47h-4.62Zm42.92-26.6v26.6h-5.01v-26.6h-8.2v-4.28h21.38v4.28h-8.16Zm10.26,26.6v-30.88h17.23v4.28h-12.22v7.73h12.22v4.4h-12.22v9.97h12.22v4.49h-17.23Zm26.25-17.71h.91c2.65,0,4.42-.31,5.29-.93.87-.62,1.31-1.71,1.31-3.29,0-1.7-.47-2.89-1.4-3.59-.94-.7-2.67-1.04-5.2-1.04h-.91v8.85Zm-.3,3.89v13.82h-4.71v-30.88h7c2.05,0,3.64.14,4.78.4,1.13.27,2.09.7,2.89,1.32.96.75,1.69,1.71,2.22,2.89.52,1.18.78,2.47.78,3.88,0,2.47-.6,4.4-1.79,5.81-1.19,1.4-2.96,2.24-5.29,2.52l10.62,14.05h-5.66l-10.28-13.82h-.56Z"/>
</svg>